<svg width="22" height="22" viewBox="0 0 22 22" fill="none" xmlns="http://www.w3.org/2000/svg">
<g clip-path="url(#clip0_1_249)">
<g clip-path="url(#clip1_1_249)">
<g clip-path="url(#clip2_1_249)">
<path d="M18.5241 7.27569C18.4421 6.38182 17.7037 5.70819 16.8055 5.70819H15.0005V4.84455C15.0005 2.46523 13.0617 0.526367 10.6823 0.526367C8.303 0.526367 6.36413 2.46523 6.36413 4.84455V5.70819H4.55913C3.66095 5.70819 2.92254 6.38182 2.8405 7.27569L1.75231 18.8916C1.69186 19.4961 1.89481 20.1007 2.30504 20.5498C2.71095 20.9945 3.29391 21.2536 3.89845 21.2536H17.4661C18.0708 21.2536 18.6536 20.9945 19.0595 20.5498C19.4698 20.1007 19.6685 19.4961 19.6124 18.8916L18.5241 7.27569ZM8.09141 4.84455C8.09141 3.41523 9.253 2.25364 10.6823 2.25364C12.1116 2.25364 13.2732 3.41523 13.2732 4.84455V5.70819H8.09141V4.84455ZM17.7814 19.3839C17.7339 19.4357 17.6303 19.5264 17.4661 19.5264H3.89845C3.73436 19.5264 3.63072 19.4357 3.57891 19.3839C3.53141 19.332 3.45368 19.2198 3.47095 19.0557L3.66959 16.9355L3.82936 15.2082L4.55913 7.43546H6.36413V9.16273H8.09141V7.43546H13.2732V9.16273H15.0005V7.43546H16.8055L17.5352 15.2082L17.695 16.9355L17.8937 19.0557C17.911 19.2198 17.8332 19.332 17.7814 19.3839Z" fill="black"/>
</g>
</g>
</g>
<defs>
<clipPath id="clip0_1_249">
<rect width="21" height="21" fill="white" transform="translate(0.309998 0.389999)"/>
</clipPath>
<clipPath id="clip1_1_249">
<rect width="21" height="21" fill="white" transform="translate(0.309998 0.389999)"/>
</clipPath>
<clipPath id="clip2_1_249">
<rect width="19" height="20.7273" fill="white" transform="translate(1.31 0.526367)"/>
</clipPath>
</defs>
</svg>
