<svg width="28" height="24" viewBox="0 0 28 24" fill="none" xmlns="http://www.w3.org/2000/svg">
<g clip-path="url(#clip0_1_235)">
<path d="M23.9358 20.5775L18.9646 15.6063C20.14 14.1696 20.8467 12.3342 20.8467 10.3333C20.8467 5.73083 17.1158 2 12.5133 2C7.91083 2 4.17999 5.73083 4.17999 10.3333C4.17999 14.9358 7.91083 18.6667 12.5133 18.6667C14.5142 18.6667 16.3496 17.96 17.7862 16.7846L22.7575 21.7558L23.9358 20.5775ZM12.5133 17C8.83749 17 5.84666 14.0092 5.84666 10.3333C5.84666 6.6575 8.83749 3.66667 12.5133 3.66667C16.1892 3.66667 19.18 6.6575 19.18 10.3333C19.18 14.0092 16.1892 17 12.5133 17Z" fill="black"/>
</g>
<defs>
<clipPath id="clip0_1_235">
<rect width="20" height="20" fill="white" transform="translate(4.17999 2)"/>
</clipPath>
</defs>
</svg>
