<svg width="22" height="21" viewBox="0 0 22 21" fill="none" xmlns="http://www.w3.org/2000/svg">
<g clip-path="url(#clip0_1_253)">
<path d="M10.81 11.2917C13.6521 11.2917 15.9558 8.98792 15.9558 6.14583C15.9558 3.30375 13.6521 1 10.81 1C7.9679 1 5.66415 3.30375 5.66415 6.14583C5.66415 8.98792 7.9679 11.2917 10.81 11.2917ZM10.81 2.58333C12.7745 2.58333 14.3725 4.18131 14.3725 6.14583C14.3725 8.11035 12.7745 9.70833 10.81 9.70833C8.84547 9.70833 7.24749 8.11035 7.24749 6.14583C7.24749 4.18131 8.84547 2.58333 10.81 2.58333Z" fill="black"/>
<path d="M14.9405 12.875H6.67948C3.71389 12.875 1.31 15.6395 1.31 19.05V19.2083C1.31 19.6457 1.66427 20 2.10166 20H19.5183C19.9557 20 20.31 19.6457 20.31 19.2083V19.05C20.31 15.6395 17.9061 12.875 14.9405 12.875ZM2.92935 18.4167C3.18466 16.1834 4.76919 14.4583 6.67987 14.4583H14.9409C16.8516 14.4583 18.4361 16.1834 18.6914 18.4167H2.92935Z" fill="black"/>
</g>
<defs>
<clipPath id="clip0_1_253">
<rect width="19" height="19" fill="white" transform="translate(1.31 1)"/>
</clipPath>
</defs>
</svg>
