<svg width="24" height="20" viewBox="0 0 24 20" fill="none" xmlns="http://www.w3.org/2000/svg">
<g clip-path="url(#clip0_1_243)">
<path d="M16.0038 2.87498C17.0454 2.87498 18.0454 3.29165 18.7954 4.04165C20.3371 5.58331 20.3371 8.08331 18.7954 9.58331L18.3371 10.0416L11.5871 16.7916L4.8371 10.0416L4.42043 9.58331C2.87877 8.04165 2.87877 5.54165 4.42043 4.04165C5.17043 3.29165 6.17043 2.87498 7.2121 2.87498C8.25377 2.87498 9.25377 3.29165 10.0038 4.04165L10.4621 4.45831L11.6288 5.58331L12.7954 4.45831L13.2538 4.04165C13.9621 3.29165 14.9204 2.87498 16.0038 2.87498ZM16.0038 1.20831C14.5871 1.20831 13.1288 1.74998 12.0454 2.83331L11.5871 3.24998L11.1288 2.83331C10.0454 1.74998 8.5871 1.20831 7.17043 1.20831C5.75377 1.20831 4.3371 1.74998 3.2121 2.83331C1.04543 4.99998 1.04543 8.58331 3.2121 10.75L3.67043 11.2083L11.0038 18.5416C11.1704 18.7083 11.3788 18.7916 11.5871 18.7916C11.7954 18.7916 12.0038 18.7083 12.1704 18.5416L19.5038 11.2083L19.9621 10.75C22.1288 8.58331 22.1288 4.99998 19.9621 2.83331C18.8371 1.74998 17.4204 1.20831 16.0038 1.20831Z" fill="black"/>
</g>
<defs>
<clipPath id="clip0_1_243">
<rect width="20" height="18" fill="white" transform="translate(1.5871 1)"/>
</clipPath>
</defs>
</svg>
