<svg width="84" height="61" viewBox="0 0 84 61" fill="none" xmlns="http://www.w3.org/2000/svg">
<g clip-path="url(#clip0_1_259)">
<g clip-path="url(#clip1_1_259)">
<g clip-path="url(#clip2_1_259)">
<path fill-rule="evenodd" clip-rule="evenodd" d="M0 51.575H84V1.575H0V51.575Z" fill="#FF0D00"/>
<path fill-rule="evenodd" clip-rule="evenodd" d="M30.314 33.307C30.014 34.38 28.802 36.145 28.234 36.2C28.064 36.215 27.819 36.125 27.829 35.738C27.849 34.832 29.266 32.777 29.849 32.62C30.249 32.512 30.427 32.902 30.314 33.307ZM40.948 27.886C39.755 27.886 38.762 32.622 37.787 32.576C36.967 32.537 37.652 29.309 36.395 29.3C35.623 29.295 35.392 30.59 35.04 31.702C35.02 31.766 34.45 34.002 33.585 34.002C33.034 34.002 32.552 33.562 32.552 32.258C32.552 31.648 32.521 30.74 31.792 30.588C30.53 30.328 30.818 31.625 29.711 31.415C26.716 30.851 24.449 37.003 26.271 37.825C28.455 38.814 30.049 34.938 30.701 35.044C31.198 35.126 30.875 36.796 32.443 36.689C33.721 36.602 34.729 33.963 35.226 33.994C35.666 34.022 35.283 35.582 36.386 35.64C37.676 35.708 38.208 33.567 38.796 33.556C38.944 33.554 39.006 33.665 38.995 34.191C38.978 34.908 38.882 43.988 38.868 44.283C38.841 44.843 39.112 44.889 39.234 44.889C39.317 44.889 40.557 44.863 40.794 44.854C41.034 44.844 41.074 44.62 41.073 44.484C41.072 44.429 41.245 31.264 41.257 28.416C41.259 27.886 41.039 27.886 40.947 27.886M65.007 23.483C64.67 24.441 63.696 25.978 63.099 26.085C62.894 26.121 62.644 25.918 62.66 25.567C62.698 24.744 64.077 22.996 64.637 22.866C65.019 22.778 65.145 23.092 65.007 23.483ZM78.251 22.033C75.924 23.503 76.372 18.066 74.956 18.066C73.411 18.066 72.96 21.29 72.409 21.344C71.735 21.41 72.661 18.981 71.324 19.034C69.852 19.094 69.028 24.433 67.96 24.02C66.864 23.596 67.649 20.776 66.416 20.57C65.779 20.464 65.648 20.973 65.268 21.219C64.701 21.587 63.681 20.946 62.081 22.811C60.271 24.919 59.718 28.324 61.098 28.557C62.956 28.869 64.649 25.697 65.079 25.29C65.677 24.72 65.343 26.933 66.955 26.965C68.659 26.999 69.171 24.188 69.667 24.215C70.092 24.239 69.599 25.69 70.41 25.793C72.168 26.018 73.132 21.41 73.855 21.511C74.579 21.611 74.307 24.36 76.048 24.534C77.527 24.68 78.54 22.662 78.677 22.363C78.82 22.055 78.577 21.828 78.251 22.033Z" fill="white"/>
<path fill-rule="evenodd" clip-rule="evenodd" d="M31.165 41.156C31.579 41.357 32.155 41.731 31.862 42.402C31.651 42.88 31.45 43.255 31.406 43.33C31.15 43.767 30.529 44.03 29.788 43.68C28.602 43.12 22.232 40.078 22.028 39.984C21.805 39.879 21.441 39.956 21.44 40.58V42.276C21.44 42.506 21.47 43.071 21.002 43.403C20.504 43.756 19.69 44.24 19.545 44.313C19.341 44.417 18.815 44.825 18.809 43.975C18.795 42.285 18.795 39.149 18.795 38.975C18.795 38.801 18.834 38.466 18.332 38.238C17.879 38.032 14.996 36.67 14.817 36.588C14.586 36.481 14.412 36.066 14.883 35.782C15.443 35.443 18.247 33.803 18.441 33.665C18.767 33.433 18.767 33.211 18.77 32.536C18.773 31.776 18.727 21.892 18.732 21.732C18.742 21.475 18.707 21.262 19.145 20.98C19.641 20.66 20.175 20.312 20.349 20.2C20.624 20.021 21.465 19.67 21.452 20.622C21.442 21.262 21.449 30.302 21.452 30.543C21.457 30.873 21.611 31.378 22.144 30.984C28.524 26.271 29.371 22.287 28.1 19.652C25.503 14.27 12.013 22.862 6.17701 27.673C5.26001 28.429 5.28201 28.095 5.28101 27.73C5.27901 27.298 5.30001 25.7 5.33501 25.405C5.38501 24.981 5.49101 23.603 6.75201 22.689C7.97401 21.803 24.699 11.029 29.559 17.952C31.929 21.329 30.482 26.66 22.062 32.852C21.548 33.23 21.452 33.354 21.452 34.037C21.452 34.72 21.437 35.752 21.452 35.947C21.468 36.143 21.488 36.557 21.894 36.762C22.3 36.969 30.821 40.989 31.164 41.156M47.19 27.354C46.572 26.659 45.33 26.671 44.374 27.26C43.114 28.036 42.777 29.25 43.397 29.944C44.016 30.639 45.497 30.492 46.404 29.89C47.443 29.2 47.81 28.049 47.191 27.354M56.63 8.83199C59.596 11.752 54.543 17.287 53.324 18.712C52.776 19.35 52.268 20.302 53.128 21.213C54.001 22.139 54.908 22.996 55.656 23.688C56.579 24.543 56.304 26.143 55.72 27.008C55.33 27.584 54.46 28.601 53.458 29.882C52.453 31.168 51.541 32.34 51.44 32.469C51.1574 32.8121 50.9906 33.2358 50.9635 33.6795C50.9363 34.1231 51.0503 34.564 51.289 34.939C52.367 36.611 52.471 36.586 53.158 35.392C54.303 33.402 55.813 31.555 56.963 30.245C57.998 29.065 58.56 28.222 58.706 28.013C59.746 26.529 59.845 24.943 58.795 24.029C57.404 22.819 55.795 21.76 54.465 20.749C53.699 20.162 54.231 19.442 55.052 18.827C57.974 16.641 62.05 12.98 60.18 8.57499C58.37 4.31299 49.854 7.60099 49.508 16.419C49.385 19.564 49.803 28.262 49.568 30.439C49.433 31.706 49.915 31.564 50.377 31.373C50.801 31.197 52.427 30.403 52.343 28.331C52.259 26.268 52.07 17.268 52.009 16.336C51.694 11.482 54.704 6.93599 56.63 8.83199ZM77.487 17.99V17.773H77.621C77.695 17.773 77.79 17.783 77.79 17.873C77.79 17.975 77.73 17.99 77.64 17.99H77.487ZM77.299 18.507H77.487V18.135H77.576L77.786 18.507H77.981L77.748 18.126C77.884 18.115 77.981 18.052 77.981 17.892C77.981 17.694 77.851 17.628 77.629 17.628H77.299V18.507Z" fill="white"/>
<path fill-rule="evenodd" clip-rule="evenodd" d="M77.605 17.427C77.4326 17.427 77.2673 17.4955 77.1454 17.6174C77.0235 17.7393 76.955 17.9046 76.955 18.077C76.955 18.2494 77.0235 18.4147 77.1454 18.5366C77.2673 18.6585 77.4326 18.727 77.605 18.727C77.7774 18.727 77.9427 18.6585 78.0646 18.5366C78.1865 18.4147 78.255 18.2494 78.255 18.077C78.255 17.9046 78.1865 17.7393 78.0646 17.6174C77.9427 17.4955 77.7774 17.427 77.605 17.427ZM77.605 18.877C77.4997 18.877 77.3955 18.8563 77.2983 18.816C77.201 18.7757 77.1127 18.7167 77.0383 18.6422C76.9638 18.5678 76.9048 18.4795 76.8645 18.3822C76.8242 18.285 76.8035 18.1808 76.8035 18.0755C76.8035 17.9702 76.8242 17.866 76.8645 17.7688C76.9048 17.6715 76.9638 17.5832 77.0383 17.5088C77.1127 17.4343 77.201 17.3753 77.2983 17.335C77.3955 17.2947 77.4997 17.274 77.605 17.274C77.8176 17.274 78.0214 17.3584 78.1717 17.5088C78.3221 17.6591 78.4065 17.8629 78.4065 18.0755C78.4065 18.2881 78.3221 18.4919 78.1717 18.6422C78.0214 18.7926 77.8176 18.877 77.605 18.877Z" fill="white"/>
<path fill-rule="evenodd" clip-rule="evenodd" d="M46.388 58.493H47.158V55.428H47.302L48.835 58.493H50.223V54.658H49.453V57.723H49.308L47.776 54.658H46.388V58.493ZM44.33 58.493H45.1V54.658H44.33V58.493ZM76.586 58.613C76.891 57.996 78.111 55.669 78.713 55.412V54.65H75.263V55.412H77.606C77.325 55.757 77.092 56.134 76.948 56.359C76.458 57.145 76.073 57.924 76.073 57.924L75.897 58.269L76.586 58.613ZM74.4 57.345C74.4 57.112 74.336 56.815 74.175 56.575C74.335 56.342 74.4 56.037 74.4 55.812C74.4 55.371 74.167 54.657 73.446 54.657H71.913C71.287 54.657 70.87 55.05 70.773 55.627C70.757 55.732 70.757 55.812 70.757 55.812H71.527C71.535 55.579 71.647 55.427 71.913 55.427H73.446C73.485 55.427 73.638 55.483 73.638 55.812C73.638 56.132 73.485 56.189 73.446 56.189H71.913V56.959H73.437C73.485 56.959 73.63 57.016 73.63 57.345C73.63 57.665 73.485 57.722 73.437 57.722H71.905C71.664 57.722 71.568 57.61 71.528 57.401V57.345H70.757C70.7536 57.4966 70.7809 57.6474 70.8374 57.7882C70.8939 57.929 70.9784 58.0568 71.0857 58.164C71.193 58.2712 71.3209 58.3556 71.4617 58.4119C71.6026 58.4683 71.7533 58.4955 71.905 58.492H73.437C74.167 58.492 74.4 57.778 74.4 57.345ZM66.919 56.189C66.869 56.189 66.726 56.133 66.726 55.813C66.726 55.483 66.87 55.427 66.919 55.427H68.644C68.692 55.427 68.836 55.483 68.836 55.813C68.836 56.133 68.692 56.189 68.644 56.189H66.919ZM65.956 55.813C65.956 56.245 66.196 56.96 66.919 56.96H68.644C68.716 56.96 68.78 56.952 68.836 56.944V57.344C68.836 57.569 68.708 57.722 68.451 57.722H67.111C66.75 57.722 66.726 57.392 66.726 57.345H65.964C65.948 57.979 66.444 58.492 67.111 58.492H68.451C69.077 58.492 69.478 58.099 69.583 57.521C69.599 57.417 69.606 57.345 69.606 57.345V55.813C69.606 55.371 69.365 54.657 68.644 54.657H66.92C66.197 54.657 65.956 55.371 65.956 55.813ZM63.492 56.149C63.5658 56.114 63.6355 56.0711 63.7 56.021V58.491H64.47V54.657H63.7C63.7 55.211 63.203 55.443 62.81 55.636L63.147 56.326L63.492 56.149ZM55.172 57.529C55.188 57.417 55.188 57.345 55.188 57.345H54.425C54.409 57.57 54.297 57.73 54.04 57.73H52.507C52.275 57.73 52.122 57.602 52.122 57.345V55.813C52.122 55.579 52.251 55.427 52.507 55.427H54.04C54.265 55.427 54.425 55.555 54.425 55.813H55.188C55.188 55.186 54.794 54.769 54.225 54.673C54.112 54.657 54.04 54.657 54.04 54.657H52.507C51.882 54.657 51.481 55.05 51.376 55.627C51.3671 55.6889 51.3591 55.7509 51.352 55.813V57.345C51.352 57.963 51.745 58.38 52.322 58.475C52.436 58.492 52.507 58.492 52.507 58.492H54.04C54.659 58.492 55.075 58.099 55.172 57.529ZM42.207 56.959C42.255 56.959 42.399 57.016 42.399 57.345C42.399 57.665 42.255 57.722 42.207 57.722H40.29C40.249 57.722 40.106 57.665 40.106 57.337L39.335 57.345C39.335 57.778 39.568 58.492 40.29 58.492H42.208C42.928 58.492 43.17 57.778 43.17 57.345C43.17 56.903 42.929 56.189 42.208 56.189H40.298C40.248 56.189 40.106 56.133 40.106 55.813C40.106 55.483 40.249 55.427 40.298 55.427H42.208C42.256 55.427 42.4 55.483 42.4 55.804L43.17 55.813C43.17 55.363 42.938 54.657 42.208 54.657H40.298C39.568 54.657 39.335 55.371 39.335 55.813C39.335 56.245 39.568 56.96 40.298 56.96H42.208L42.207 56.959ZM33.076 56.189V55.427H35.756V54.657H32.305V58.492H35.755V57.722H33.075V56.96H34.985V56.189H33.076ZM27.182 58.492H27.951V55.427H28.096L29.629 58.492H31.017V54.657H30.247V57.722H30.102L28.57 54.657H27.182V58.492ZM25.122 58.492H25.892V54.657H25.122V58.492ZM23.886 54.657H23.123V57.345C23.123 57.569 22.996 57.722 22.739 57.722H21.206C20.973 57.722 20.821 57.601 20.821 57.345V54.657H20.059V57.345C20.059 57.963 20.452 58.38 21.021 58.475C21.134 58.492 21.206 58.492 21.206 58.492H22.739C23.364 58.492 23.766 58.099 23.869 57.521C23.886 57.417 23.886 57.345 23.886 57.345V54.657ZM14.986 58.492H15.756V55.427H15.901L17.434 58.492H18.822V54.657H18.051V57.722H17.907L16.374 54.657H14.986V58.492ZM57.036 56.189V55.427H59.716V54.657H56.266V58.492H59.716V57.722H57.036V56.96H58.946V56.189H57.036ZM11.12 56.189V55.427H13.8V54.657H10.35V58.492H13.8V57.722H11.12V56.96H13.03V56.189H11.12ZM9.11299 56.189V57.345C9.11299 57.345 9.11299 57.417 9.09699 57.521C8.99299 58.099 8.59199 58.491 7.96599 58.491H6.43499C6.43499 58.491 6.36199 58.491 6.24999 58.476C5.67999 58.38 5.28699 57.963 5.28699 57.345V55.813C5.28699 55.813 5.28699 55.732 5.30299 55.628C5.39899 55.05 5.80799 54.657 6.43499 54.657H7.96699C7.96699 54.657 8.03899 54.657 8.15099 54.673C8.72899 54.769 9.11399 55.186 9.11399 55.813H8.35199C8.35199 55.547 8.19999 55.427 7.96699 55.427H6.43499C6.17799 55.427 6.04899 55.579 6.04899 55.813V57.345C6.04899 57.601 6.20199 57.722 6.43499 57.722H7.96699C8.22399 57.722 8.35199 57.569 8.35199 57.345V56.96H7.20499V56.189H9.11399H9.11299Z" fill="black"/>
</g>
</g>
</g>
<defs>
<clipPath id="clip0_1_259">
<rect width="84" height="60.15" fill="white"/>
</clipPath>
<clipPath id="clip1_1_259">
<rect width="84" height="60.15" fill="white"/>
</clipPath>
<clipPath id="clip2_1_259">
<rect width="84" height="60.1481" fill="white" transform="translate(0 0.000930786)"/>
</clipPath>
</defs>
</svg>
